<svg width="17" height="16" viewBox="0 0 17 16" fill="none" xmlns="http://www.w3.org/2000/svg">
<g clip-path="url(#clip0_24_150)">
<rect x="0.372864" width="16.2712" height="16" rx="3" fill="#3E86F5"/>
<path d="M14.2606 0H2.75634C1.44225 0 0.372864 1.05156 0.372864 2.34375V13.6562C0.372864 14.9487 1.44225 16 2.75634 16H14.2606C15.575 16 16.6441 14.9487 16.6441 13.6562V2.34375C16.6441 1.05156 15.575 0 14.2606 0ZM15.6907 13.6562C15.6907 14.4316 15.049 15.0625 14.2606 15.0625H2.75634C1.96789 15.0625 1.32625 14.4316 1.32625 13.6562V2.34375C1.32625 1.56844 1.96789 0.9375 2.75634 0.9375H14.2606C15.049 0.9375 15.6907 1.56844 15.6907 2.34375V13.6562Z" fill="white"/>
<path d="M13.7521 1.90625C13.2265 1.90625 12.7987 2.32687 12.7987 2.84375C12.7987 3.36063 13.2265 3.78125 13.7521 3.78125C14.2777 3.78125 14.7055 3.36063 14.7055 2.84375C14.7055 2.32687 14.2777 1.90625 13.7521 1.90625Z" fill="white"/>
<path d="M8.50846 3.78125C6.14278 3.78125 4.2182 5.67375 4.2182 8C4.2182 10.3263 6.14278 12.2188 8.50846 12.2188C10.8741 12.2188 12.7987 10.3263 12.7987 8C12.7987 5.67375 10.8741 3.78125 8.50846 3.78125ZM8.50846 11.2812C6.66841 11.2812 5.17159 9.80937 5.17159 8C5.17159 6.19062 6.66841 4.71875 8.50846 4.71875C10.3485 4.71875 11.8453 6.19062 11.8453 8C11.8453 9.80937 10.3485 11.2812 8.50846 11.2812Z" fill="white"/>
</g>
<defs>
<clipPath id="clip0_24_150">
<rect x="0.372864" width="16.2712" height="16" rx="3" fill="white"/>
</clipPath>
</defs>
</svg>
