<svg width="17" height="13" viewBox="0 0 17 13" fill="none" xmlns="http://www.w3.org/2000/svg">
<path d="M16.7796 1.539C16.1745 1.8 15.5298 1.973 14.8576 2.057C15.5491 1.651 16.0769 1.013 16.325 0.244C15.6803 0.622 14.9684 0.889 14.2098 1.038C13.5976 0.397 12.725 0 11.7732 0C9.92639 0 8.43961 1.474 8.43961 3.281C8.43961 3.541 8.46198 3.791 8.5169 4.029C5.74368 3.896 3.28978 2.589 1.6413 0.598C1.35351 1.089 1.18469 1.651 1.18469 2.256C1.18469 3.392 1.77961 4.399 2.66639 4.982C2.13046 4.972 1.60469 4.819 1.15927 4.578C1.15927 4.588 1.15927 4.601 1.15927 4.614C1.15927 6.208 2.31554 7.532 3.83181 7.837C3.56029 7.91 3.26436 7.945 2.95724 7.945C2.74368 7.945 2.52808 7.933 2.32571 7.889C2.75791 9.188 3.98436 10.143 5.44266 10.174C4.30775 11.047 2.86673 11.573 1.30673 11.573C1.03317 11.573 0.770796 11.561 0.508423 11.528C1.98605 12.465 3.73724 13 5.62571 13C11.764 13 15.1199 8 15.1199 3.666C15.1199 3.521 15.1149 3.381 15.1077 3.242C15.7698 2.78 16.3261 2.203 16.7796 1.539Z" fill="#3E86F5"/>
</svg>
